<svg width="24.000000" height="24.000000" viewBox="0 0 24 24" fill="none" xmlns="http://www.w3.org/2000/svg" xmlns:xlink="http://www.w3.org/1999/xlink">
	<desc>
			Created with Pixso.
	</desc>
	<defs/>
	<path id="Vector" d="M15 19.92L8.47949 13.4C7.70996 12.63 7.70996 11.37 8.47949 10.6L15 4.08002L15 19.92ZM15.502 19.3897L15.5303 19.3897C15.8271 19.6867 15.8271 20.1534 15.5303 20.4503C15.2334 20.7473 14.7666 20.7473 14.4697 20.4503L14.4697 20.4221L15.502 19.3897ZM14.4697 3.57797L14.4697 3.54968C14.7666 3.25272 15.2334 3.25272 15.5303 3.54968C15.8271 3.84668 15.8271 4.31335 15.5303 4.61035L15.502 4.61035L14.4697 3.57797Z" fill="#FFFFFF" fill-opacity="0" fill-rule="nonzero"/>
	<path id="Vector" d="M15 19.92L8.47949 13.4C7.70996 12.63 7.70996 11.37 8.47949 10.6L15 4.08002" stroke="#FFFFFF" stroke-opacity="1.000000" stroke-width="1.500000" stroke-linejoin="round" stroke-linecap="round"/>
	<g opacity="0.000000">
		<path id="Vector" d="M24 24L0 24L0 0L24 0L24 24Z" fill="#FFFFFF" fill-opacity="0" fill-rule="evenodd"/>
		<path id="Vector" d="M0 24L0 0L24 0L24 24L0 24Z" stroke="#FFFFFF" stroke-opacity="1.000000" stroke-width="1.000000"/>
	</g>
</svg>
