<svg width="30" height="30" viewBox="0 0 30 30" fill="none" xmlns="http://www.w3.org/2000/svg">
    <g id="vuesax/bold/arrow-circle-right">
        <g id="arrow-circle-right">
            <path id="Vector"
                d="M14.9368 2.77214C8.19929 2.77214 2.70898 8.26244 2.70898 15C2.70898 21.7375 8.19929 27.2278 14.9368 27.2278C21.6744 27.2278 27.1647 21.7375 27.1647 15C27.1647 8.26244 21.6744 2.77214 14.9368 2.77214ZM18.3484 15.6481L14.032 19.9645C13.8486 20.1479 13.6162 20.2335 13.3839 20.2335C13.1516 20.2335 12.9192 20.1479 12.7358 19.9645C12.3812 19.6099 12.3812 19.023 12.7358 18.6683L16.4042 15L12.7358 11.3316C12.3812 10.977 12.3812 10.3901 12.7358 10.0355C13.0904 9.68088 13.6774 9.68088 14.032 10.0355L18.3484 14.3519C18.7152 14.7065 18.7152 15.2935 18.3484 15.6481Z"
                fill="#949494" />
        </g>
    </g>
</svg>