<svg width="32" height="32" viewBox="0 0 32 32" fill="none" xmlns="http://www.w3.org/2000/svg">
<g id="vuesax/linear/call">
<g id="call">
<g id="call_2">
<path id="Vector" d="M29.2932 24.44C29.2932 24.92 29.1865 25.4133 28.9598 25.8933C28.7332 26.3733 28.4398 26.8266 28.0532 27.2533C27.3998 27.9733 26.6798 28.4933 25.8665 28.8266C25.0665 29.16 24.1998 29.3333 23.2665 29.3333C21.9065 29.3333 20.4532 29.0133 18.9198 28.36C17.3865 27.7066 15.8532 26.8266 14.3332 25.72C12.7998 24.6 11.3465 23.36 9.95984 21.9866C8.5865 20.6 7.3465 19.1466 6.23984 17.6266C5.1465 16.1066 4.2665 14.5866 3.6265 13.08C2.9865 11.56 2.6665 10.1066 2.6665 8.71996C2.6665 7.81329 2.8265 6.94663 3.1465 6.14663C3.4665 5.33329 3.97317 4.58663 4.67984 3.91996C5.53317 3.07996 6.4665 2.66663 7.45317 2.66663C7.8265 2.66663 8.19984 2.74663 8.53317 2.90663C8.87984 3.06663 9.1865 3.30663 9.4265 3.65329L12.5198 8.01329C12.7598 8.34663 12.9332 8.65329 13.0532 8.94663C13.1732 9.22663 13.2398 9.50663 13.2398 9.75996C13.2398 10.08 13.1465 10.4 12.9598 10.7066C12.7865 11.0133 12.5332 11.3333 12.2132 11.6533L11.1998 12.7066C11.0532 12.8533 10.9865 13.0266 10.9865 13.24C10.9865 13.3466 10.9998 13.44 11.0265 13.5466C11.0665 13.6533 11.1065 13.7333 11.1332 13.8133C11.3732 14.2533 11.7865 14.8266 12.3732 15.52C12.9732 16.2133 13.6132 16.92 14.3065 17.6266C15.0265 18.3333 15.7198 18.9866 16.4265 19.5866C17.1198 20.1733 17.6932 20.5733 18.1465 20.8133C18.2132 20.84 18.2932 20.88 18.3865 20.92C18.4932 20.96 18.5998 20.9733 18.7198 20.9733C18.9465 20.9733 19.1198 20.8933 19.2665 20.7466L20.2798 19.7466C20.6132 19.4133 20.9332 19.16 21.2398 19C21.5465 18.8133 21.8532 18.72 22.1865 18.72C22.4398 18.72 22.7065 18.7733 22.9998 18.8933C23.2932 19.0133 23.5998 19.1866 23.9332 19.4133L28.3465 22.5466C28.6932 22.7866 28.9332 23.0666 29.0798 23.4C29.2132 23.7333 29.2932 24.0666 29.2932 24.44Z" stroke="#13181F" stroke-width="1.5" stroke-miterlimit="10"/>
</g>
</g>
</g>
</svg>
