<svg width="17" height="16" viewBox="0 0 17 16" fill="none" xmlns="http://www.w3.org/2000/svg">
    <g id="vuesax/linear/bag-happy">
        <g id="bag-happy">
            <path id="Vector"
                d="M6.36719 9.5C6.36719 10.78 7.42052 11.8333 8.70052 11.8333C9.98052 11.8333 11.0339 10.78 11.0339 9.5"
                stroke="white" stroke-width="1.5" stroke-miterlimit="10" stroke-linecap="round"
                stroke-linejoin="round" />
            <path id="Vector_2" d="M6.57398 1.33333L4.16064 3.75333" stroke="white" stroke-width="1.5"
                stroke-miterlimit="10" stroke-linecap="round" stroke-linejoin="round" />
            <path id="Vector_3" d="M10.8271 1.33333L13.2405 3.75333" stroke="white" stroke-width="1.5"
                stroke-miterlimit="10" stroke-linecap="round" stroke-linejoin="round" />
            <path id="Vector_4"
                d="M2.03418 5.23333C2.03418 3.99999 2.69418 3.89999 3.51418 3.89999H13.8875C14.7075 3.89999 15.3675 3.99999 15.3675 5.23333C15.3675 6.66666 14.7075 6.56666 13.8875 6.56666H3.51418C2.69418 6.56666 2.03418 6.66666 2.03418 5.23333Z"
                stroke="white" stroke-width="1.5" />
            <path id="Vector_5"
                d="M3.03418 6.66667L3.97418 12.4267C4.18751 13.72 4.70085 14.6667 6.60751 14.6667H10.6275C12.7008 14.6667 13.0075 13.76 13.2475 12.5067L14.3675 6.66667"
                stroke="white" stroke-width="1.5" stroke-linecap="round" />
        </g>
    </g>
</svg>