<svg width="40.000000" height="40.000000" viewBox="0 0 40 40" fill="none" xmlns="http://www.w3.org/2000/svg" xmlns:xlink="http://www.w3.org/1999/xlink">
	<desc>
			Created with Pixso.
	</desc>
	<defs>
		<linearGradient id="paint_linear_2_3166_0" x1="0.000004" y1="-0.000011" x2="39.999992" y2="39.999996" gradientUnits="userSpaceOnUse">
			<stop stop-color="#08C8F9"/>
			<stop offset="1.000000" stop-color="#1A3EDD"/>
		</linearGradient>
	</defs>
	<rect id="Icon" rx="12.000000" width="40.000000" height="40.000000" fill="url(#paint_linear_2_3166_0)" fill-opacity="1.000000"/>
	<rect id="vuesax/bold/profile-2user" width="24.000000" height="24.000000" transform="translate(8.000000 8.000000)" fill="#FFFFFF" fill-opacity="0"/>
	<path id="Vector" d="M17 10C14.3799 10 12.25 12.13 12.25 14.75C12.25 17.32 14.2598 19.4 16.8799 19.49C16.96 19.48 17.04 19.48 17.0996 19.49C17.1201 19.49 17.1299 19.49 17.1504 19.49C17.1602 19.49 17.1602 19.49 17.1699 19.49C19.7305 19.4 21.7402 17.32 21.75 14.75C21.75 12.13 19.6201 10 17 10Z" fill="#FFFFFF" fill-opacity="1.000000" fill-rule="nonzero"/>
	<path id="Vector" d="M22.0801 22.15C19.29 20.29 14.7402 20.29 11.9297 22.15C10.6602 23 9.95996 24.15 9.95996 25.38C9.95996 26.61 10.6602 27.75 11.9199 28.59C13.3203 29.53 15.1602 30 17 30C18.8398 30 20.6797 29.53 22.0801 28.59C23.3398 27.74 24.04 26.6 24.04 25.36C24.0303 24.13 23.3398 22.99 22.0801 22.15Z" fill="#FFFFFF" fill-opacity="1.000000" fill-rule="nonzero"/>
	<path id="Vector" d="M27.9902 15.34C28.1504 17.28 26.7705 18.98 24.8604 19.21C24.8506 19.21 24.8506 19.21 24.8408 19.21L24.8105 19.21C24.75 19.21 24.6904 19.21 24.6406 19.23C23.6699 19.28 22.7803 18.97 22.1104 18.4C23.1406 17.48 23.7305 16.1 23.6104 14.6C23.54 13.79 23.2607 13.05 22.8408 12.42C23.2207 12.23 23.6602 12.11 24.1104 12.07C26.0703 11.9 27.8203 13.36 27.9902 15.34Z" fill="#FFFFFF" fill-opacity="1.000000" fill-rule="nonzero"/>
	<path id="Vector" d="M29.9902 24.59C29.9102 25.56 29.29 26.4 28.25 26.97C27.25 27.52 25.9902 27.78 24.7402 27.75C25.46 27.1 25.8799 26.29 25.96 25.43C26.0605 24.19 25.4707 23 24.29 22.05C23.6201 21.52 22.8398 21.1 21.9902 20.79C24.2002 20.15 26.9805 20.58 28.6904 21.96C29.6104 22.7 30.0801 23.63 29.9902 24.59Z" fill="#FFFFFF" fill-opacity="1.000000" fill-rule="nonzero"/>
	<g opacity="0.000000"/>
</svg>
