<svg width="25" height="24" viewBox="0 0 25 24" fill="none" xmlns="http://www.w3.org/2000/svg">
    <path
        d="M16.334 12.9V17.1C16.334 20.6 14.934 22 11.434 22H7.23398C3.73398 22 2.33398 20.6 2.33398 17.1V12.9C2.33398 9.4 3.73398 8 7.23398 8H11.434C14.934 8 16.334 9.4 16.334 12.9Z"
        stroke="white" stroke-width="1.5" stroke-linecap="round" stroke-linejoin="round" />
    <path
        d="M22.334 6.9V11.1C22.334 14.6 20.934 16 17.434 16H16.334V12.9C16.334 9.4 14.934 8 11.434 8H8.33398V6.9C8.33398 3.4 9.73398 2 13.234 2H17.434C20.934 2 22.334 3.4 22.334 6.9Z"
        stroke="white" stroke-width="1.5" stroke-linecap="round" stroke-linejoin="round" />
</svg>