<svg width="25" height="24" viewBox="0 0 25 24" fill="none" xmlns="http://www.w3.org/2000/svg">
<path d="M17.7812 22H7.78125C7.37125 22 7.03125 21.66 7.03125 21.25C7.03125 20.84 7.37125 20.5 7.78125 20.5H17.7812C18.1912 20.5 18.5312 20.84 18.5312 21.25C18.5312 21.66 18.1912 22 17.7812 22Z" fill="white"/>
<path d="M21.1315 5.51999L17.1315 8.37999C16.6015 8.75999 15.8415 8.52999 15.6115 7.91999L13.7215 2.87999C13.4015 2.00999 12.1715 2.00999 11.8515 2.87999L9.95147 7.90999C9.72147 8.52999 8.97147 8.75999 8.44147 8.36999L4.44147 5.50999C3.64147 4.94999 2.58147 5.73999 2.91147 6.66999L7.07147 18.32C7.21147 18.72 7.59147 18.98 8.01147 18.98H17.5415C17.9615 18.98 18.3415 18.71 18.4815 18.32L22.6415 6.66999C22.9815 5.73999 21.9215 4.94999 21.1315 5.51999ZM15.2815 14.75H10.2815C9.87147 14.75 9.53147 14.41 9.53147 14C9.53147 13.59 9.87147 13.25 10.2815 13.25H15.2815C15.6915 13.25 16.0315 13.59 16.0315 14C16.0315 14.41 15.6915 14.75 15.2815 14.75Z" fill="white"/>
</svg>
