<svg width="24" height="25" viewBox="0 0 24 25" fill="none" xmlns="http://www.w3.org/2000/svg">
<g id="vuesax/linear/facebook">
<g id="facebook">
<path id="Vector" d="M14 10.2595V13.1595H16.6C16.8 13.1595 16.9 13.3595 16.9 13.5595L16.5 15.4595C16.5 15.5595 16.3 15.6595 16.2 15.6595H14V22.9595H11V15.7595H9.3C9.1 15.7595 9 15.6595 9 15.4595V13.5595C9 13.3595 9.1 13.2595 9.3 13.2595H11V9.95947C11 8.25947 12.3 6.95947 14 6.95947H16.7C16.9 6.95947 17 7.05947 17 7.25947V9.65947C17 9.85947 16.9 9.95947 16.7 9.95947H14.3C14.1 9.95947 14 10.0595 14 10.2595Z" stroke="#EDEDED" stroke-width="1.5" stroke-miterlimit="10" stroke-linecap="round"/>
<path id="Vector_2" d="M15 22.9595H9C4 22.9595 2 20.9595 2 15.9595V9.95947C2 4.95947 4 2.95947 9 2.95947H15C20 2.95947 22 4.95947 22 9.95947V15.9595C22 20.9595 20 22.9595 15 22.9595Z" stroke="#EDEDED" stroke-width="1.5" stroke-linecap="round" stroke-linejoin="round"/>
</g>
</g>
</svg>
