<svg width="18.000000" height="18.000000" viewBox="0 0 18 18" fill="none" xmlns="http://www.w3.org/2000/svg" xmlns:xlink="http://www.w3.org/1999/xlink">
	<desc>
			Created with Pixso.
	</desc>
	<defs>
		<linearGradient id="paint_linear_8_6103_0" x1="1.372561" y1="1.499995" x2="16.629814" y2="16.500011" gradientUnits="userSpaceOnUse">
			<stop stop-color="#08C8F9"/>
			<stop offset="1.000000" stop-color="#1A3EDD"/>
		</linearGradient>
	</defs>
	<rect id="vuesax/bold/home" width="18.000000" height="18.000000" fill="#FFFFFF" fill-opacity="0"/>
	<path id="Vector" d="M15.6226 6.00751L10.71 2.07751C9.75 1.3125 8.25 1.30502 7.29736 2.07001L2.38477 6.00751C1.68018 6.57001 1.25244 7.69501 1.40234 8.58002L2.34766 14.235C2.56494 15.5025 3.74268 16.5 5.0249 16.5L12.9751 16.5C14.2427 16.5 15.4424 15.48 15.6602 14.2275L16.605 8.57251C16.7397 7.69501 16.3125 6.57001 15.6226 6.00751ZM9.5625 13.5C9.5625 13.8075 9.30762 14.0625 9 14.0625C8.69238 14.0625 8.4375 13.8075 8.4375 13.5L8.4375 11.25C8.4375 10.9425 8.69238 10.6875 9 10.6875C9.30762 10.6875 9.5625 10.9425 9.5625 11.25L9.5625 13.5Z" fill="url(#paint_linear_8_6103_0)" fill-opacity="1.000000" fill-rule="nonzero"/>
	<g opacity="0.000000"/>
</svg>
