<svg width="18.000000" height="18.000000" viewBox="0 0 18 18" fill="none" xmlns="http://www.w3.org/2000/svg" xmlns:xlink="http://www.w3.org/1999/xlink">
	<desc>
			Created with Pixso.
	</desc>
	<defs>
		<linearGradient id="paint_linear_10_6198_0" x1="0.000004" y1="-0.000006" x2="18.000000" y2="18.000000" gradientUnits="userSpaceOnUse">
			<stop stop-color="#08C8F9"/>
			<stop offset="1.000000" stop-color="#1A3EDD"/>
		</linearGradient>
		<linearGradient id="paint_linear_10_6198_1" x1="0.000004" y1="-0.000006" x2="18.000000" y2="18.000000" gradientUnits="userSpaceOnUse">
			<stop stop-color="#08C8F9"/>
			<stop offset="1.000000" stop-color="#1A3EDD"/>
		</linearGradient>
		<linearGradient id="paint_linear_10_6199_0" x1="1.500001" y1="1.499994" x2="16.492521" y2="16.499998" gradientUnits="userSpaceOnUse">
			<stop stop-color="#08C8F9"/>
			<stop offset="1.000000" stop-color="#1A3EDD"/>
		</linearGradient>
		<linearGradient id="paint_linear_10_6199_1" x1="1.500001" y1="1.499994" x2="16.492521" y2="16.499998" gradientUnits="userSpaceOnUse">
			<stop stop-color="#08C8F9"/>
			<stop offset="1.000000" stop-color="#1A3EDD"/>
		</linearGradient>
	</defs>
	<g opacity="0.000000">
		<path d="M0 0L18 0L18 18L0 18L0 0Z" fill="url(#paint_linear_10_6198_0)" fill-opacity="1.000000" fill-rule="evenodd"/>
		<path d="M-0.5 -0.5L18.5 -0.5L18.5 18.5L-0.5 18.5L-0.5 -0.5ZM0.5 0.5L0.5 17.5L17.5 17.5L17.5 0.5L0.5 0.5Z" fill="url(#paint_linear_10_6198_1)" fill-opacity="1.000000" fill-rule="evenodd"/>
	</g>
	<path d="M12.1426 1.5L5.85742 1.5C3.12744 1.5 1.5 3.1275 1.5 5.85751L1.5 12.135C1.5 14.8725 3.12744 16.5 5.85742 16.5L12.1348 16.5C14.8652 16.5 16.4927 14.8725 16.4927 12.1425L16.4927 5.85751C16.5 3.1275 14.8726 1.5 12.1426 1.5ZM6.13477 12.5775C6.12012 12.5775 6.09766 12.5775 6.08252 12.5775C5.35498 12.51 4.67236 12.1725 4.1626 11.6325C2.9624 10.3725 2.9624 8.32501 4.1626 7.065L5.80518 5.34C6.39014 4.72501 7.17773 4.38 8.01758 4.38C8.85742 4.38 9.64502 4.7175 10.23 5.34C11.4302 6.60001 11.4302 8.64749 10.23 9.9075L9.4126 10.77C9.19482 10.995 8.84229 11.0025 8.61768 10.7925C8.39258 10.575 8.38477 10.2225 8.59521 9.9975L9.4126 9.13501C10.2075 8.30249 10.2075 6.94501 9.4126 6.12C8.66992 5.34 7.36523 5.34 6.61523 6.12L4.97266 7.845C4.17773 8.67749 4.17773 10.035 4.97266 10.86C5.29492 11.205 5.72998 11.415 6.1875 11.46C6.49512 11.49 6.72021 11.7675 6.68994 12.075C6.66748 12.36 6.41992 12.5775 6.13477 12.5775ZM13.8374 10.9425L12.1948 12.6675C11.6099 13.2825 10.8223 13.6275 9.98242 13.6275C9.14258 13.6275 8.35498 13.29 7.77002 12.6675C6.56982 11.4075 6.56982 9.35999 7.77002 8.10001L8.5874 7.23749C8.80518 7.01251 9.15771 7.005 9.38232 7.215C9.60742 7.4325 9.61523 7.785 9.40479 8.01001L8.5874 8.8725C7.79248 9.70499 7.79248 11.0625 8.5874 11.8875C9.33008 12.6675 10.6348 12.675 11.3848 11.8875L13.0273 10.1625C13.8223 9.32999 13.8223 7.9725 13.0273 7.14749C12.7051 6.80249 12.27 6.5925 11.8125 6.54749C11.5049 6.51749 11.2798 6.23999 11.3101 5.9325C11.3398 5.625 11.6099 5.39249 11.9248 5.42999C12.6523 5.505 13.335 5.83499 13.8452 6.375C15.0376 7.6275 15.0376 9.6825 13.8374 10.9425Z" fill="url(#paint_linear_10_6199_0)" fill-opacity="1.000000" fill-rule="nonzero"/>
	<path d="M5.85742 2C5.23877 2 4.68457 2.08893 4.1958 2.26682C3.729 2.43677 3.33301 2.68402 3.00879 3.00854C2.68408 3.3331 2.43701 3.72888 2.2666 4.19592C2.08887 4.68469 2 5.23856 2 5.85751L2 12.135C2 12.7559 2.08887 13.3113 2.26709 13.8012C2.43701 14.2692 2.68408 14.6657 3.00879 14.9907C3.33301 15.3156 3.729 15.563 4.1958 15.7331C4.68457 15.911 5.23828 16 5.85742 16L12.1348 16C12.7539 16 13.3076 15.9111 13.7964 15.7332C14.2637 15.5632 14.6592 15.316 14.9839 14.9915C15.3086 14.6669 15.5557 14.2711 15.7256 13.8041C15.9033 13.3153 15.9927 12.7614 15.9927 12.1425L15.9927 5.85751C15.9941 5.23792 15.9067 4.68378 15.7295 4.1951C15.561 3.72836 15.3145 3.33276 14.9902 3.00833C14.6665 2.68393 14.271 2.43674 13.8037 2.26678C13.3154 2.08893 12.7617 2 12.1426 2L5.85742 2ZM5.85742 1L12.1426 1C12.8789 1 13.5469 1.10904 14.146 1.32712C14.752 1.54767 15.269 1.87253 15.6978 2.30167C16.1265 2.73096 16.4507 3.24866 16.6699 3.85474C16.8872 4.45428 16.9946 5.12186 16.9927 5.85751L16.9927 12.1425C16.9927 12.879 16.8833 13.5468 16.6655 14.1461C16.4448 14.752 16.1201 15.2695 15.6909 15.6985C15.2622 16.1276 14.7446 16.4524 14.1387 16.6729C13.5396 16.891 12.8716 17 12.1348 17L5.85742 17C5.12109 17 4.45312 16.8909 3.854 16.6728C3.24756 16.4521 2.73047 16.127 2.30127 15.6974C1.87207 15.2678 1.54736 14.7495 1.32715 14.1426C1.10889 13.5424 1 12.8732 1 12.135L1 5.85751C1 5.121 1.10889 4.45316 1.32715 3.85394C1.54736 3.24799 1.87256 2.7305 2.30127 2.30145C2.73047 1.87238 3.24805 1.54761 3.854 1.32709C4.45312 1.10904 5.12109 1 5.85742 1ZM6.03613 13.0753C5.61182 13.036 5.20605 12.9211 4.81982 12.7307C4.43604 12.5414 4.0957 12.2898 3.79883 11.9758C3.45947 11.6194 3.2002 11.2089 3.021 10.7444C2.84863 10.2977 2.7627 9.83246 2.7627 9.34875C2.7627 8.86505 2.84863 8.39981 3.021 7.95309C3.2002 7.48859 3.45996 7.07761 3.80029 6.72018L5.44287 4.99521C5.78271 4.63818 6.17383 4.3634 6.61621 4.17087C7.06201 3.97696 7.5293 3.88 8.01758 3.88C8.50781 3.88 8.97461 3.97589 9.41797 4.16763C9.86328 4.36029 10.2554 4.63693 10.5942 4.99759C10.9331 5.35342 11.1924 5.76358 11.3716 6.22809C11.5439 6.6748 11.6299 7.14005 11.6299 7.62375C11.6299 8.10745 11.5439 8.57269 11.3716 9.01941C11.1924 9.48392 10.9326 9.8949 10.5923 10.2523L9.77539 11.114C9.67334 11.2194 9.55713 11.3003 9.42676 11.3568C9.30029 11.4115 9.16846 11.4406 9.03076 11.4442C8.89355 11.4478 8.76025 11.4257 8.63184 11.3779C8.49902 11.3285 8.38037 11.2552 8.27637 11.158C8.16895 11.0544 8.0874 10.9373 8.03076 10.8068C7.97607 10.6805 7.94678 10.5486 7.94336 10.4109C7.93994 10.2734 7.96191 10.1404 8.00977 10.0118C8.05908 9.87894 8.13232 9.76044 8.22949 9.65634L9.0498 8.79105C9.19971 8.63382 9.31445 8.453 9.39307 8.24854C9.47021 8.04929 9.50879 7.84134 9.50879 7.62469C9.50879 7.40826 9.47021 7.20099 9.39355 7.00284C9.31494 6.79984 9.20117 6.62122 9.05225 6.46695C8.91846 6.32608 8.76025 6.21844 8.57861 6.14407C8.40039 6.07135 8.21338 6.035 8.0166 6.035C7.81982 6.035 7.63184 6.07144 7.45264 6.14432C7.26904 6.21902 7.11035 6.32645 6.97559 6.46655L5.33447 8.18979C5.18506 8.34644 5.0708 8.52701 4.9917 8.73148C4.91455 8.93073 4.87646 9.13867 4.87646 9.35532C4.87646 9.57175 4.91455 9.77902 4.9917 9.97717C5.07031 10.1802 5.18408 10.3588 5.33252 10.5131C5.45459 10.6435 5.59375 10.747 5.74951 10.8237C5.90381 10.8994 6.06641 10.9456 6.23633 10.9624C6.37988 10.9764 6.51416 11.0179 6.64062 11.0872C6.76123 11.1534 6.86523 11.2402 6.95264 11.3475C7.04004 11.4544 7.104 11.5735 7.14502 11.705C7.1875 11.8415 7.20166 11.981 7.1875 12.1235C7.17725 12.2534 7.14111 12.3792 7.0791 12.5008C7.02051 12.6164 6.94238 12.7179 6.84473 12.8053C6.74902 12.8914 6.64062 12.9579 6.52051 13.0048C6.39648 13.0533 6.26807 13.0775 6.13477 13.0775L6.1123 13.0775L6.05957 13.0775L6.03613 13.0753ZM6.12891 12.0797L6.08252 12.5775L6.08252 12.0775L6.1123 12.0775L6.13477 12.0775C6.15088 12.0775 6.16455 12.072 6.17725 12.061C6.18604 12.0529 6.19092 12.0414 6.19238 12.0265C6.19385 12.0091 6.18896 11.9934 6.17773 11.9793C6.16699 11.9664 6.1543 11.9591 6.13867 11.9576C5.84814 11.929 5.57178 11.8503 5.30908 11.7213C5.04297 11.5908 4.81104 11.4193 4.6123 11.2069C4.37061 10.9561 4.18652 10.6667 4.05908 10.3387C3.93701 10.0243 3.87646 9.69647 3.87646 9.35532C3.87646 9.01437 3.93701 8.68631 4.05908 8.37109C4.18604 8.0426 4.36963 7.75232 4.61035 7.50021L6.25439 5.77344C6.4873 5.53134 6.76123 5.34625 7.07568 5.21817C7.37549 5.09607 7.68896 5.035 8.0166 5.035C8.34424 5.035 8.65771 5.09613 8.95703 5.21844C9.271 5.34683 9.54297 5.53171 9.77246 5.77304C10.0142 6.02386 10.1987 6.31329 10.3257 6.6413C10.4478 6.95575 10.5088 7.28354 10.5088 7.62469C10.5088 7.96564 10.4478 8.2937 10.3262 8.60889C10.1992 8.93738 10.0156 9.22742 9.77539 9.47897L8.96045 10.3387C8.94824 10.3517 8.94238 10.3671 8.94287 10.3847C8.94336 10.4032 8.94873 10.4172 8.9585 10.427C8.97168 10.4391 8.9873 10.445 9.00488 10.4445C9.02295 10.4441 9.03809 10.4379 9.0498 10.426L9.86816 9.56268C10.1167 9.3013 10.3071 9.00021 10.4385 8.65948C10.5664 8.32858 10.6299 7.98334 10.6299 7.62375C10.6299 7.26419 10.5664 6.91891 10.4385 6.58801C10.3071 6.24728 10.1162 5.9454 9.86572 5.6824C9.62109 5.4223 9.33984 5.22333 9.021 5.08548C8.7041 4.94849 8.36963 4.88 8.01758 4.88C7.66797 4.88 7.3335 4.94928 7.01514 5.08786C6.69629 5.22647 6.41357 5.42545 6.16699 5.68478L4.52441 7.40982C4.27539 7.6712 4.08545 7.97226 3.9541 8.31302C3.82617 8.64392 3.7627 8.98917 3.7627 9.34875C3.7627 9.70831 3.82617 10.0536 3.9541 10.3845C4.08545 10.7252 4.27588 11.0268 4.52588 11.2892C4.74023 11.5159 4.98535 11.6974 5.26172 11.8337C5.5376 11.9696 5.82666 12.0516 6.12891 12.0797ZM12.5571 13.0121C12.2178 13.3693 11.8262 13.6441 11.3838 13.8366C10.938 14.0305 10.4707 14.1275 9.98242 14.1275C9.49219 14.1275 9.02539 14.0316 8.58203 13.8398C8.13672 13.6472 7.74463 13.3706 7.40576 13.0099C7.06689 12.6541 6.80762 12.2439 6.62842 11.7794C6.45605 11.3327 6.37012 10.8675 6.37012 10.3838C6.37012 9.90005 6.45605 9.43481 6.62842 8.9881C6.80762 8.52359 7.06738 8.11261 7.40771 7.75519L8.22461 6.89355C8.32666 6.78812 8.44287 6.70715 8.57324 6.65067C8.69971 6.59601 8.83154 6.56689 8.96924 6.56329C9.10645 6.55969 9.23975 6.58182 9.36816 6.62961C9.50098 6.67902 9.61963 6.75232 9.72363 6.84949C9.83105 6.95312 9.9126 7.07019 9.96924 7.20074C10.0239 7.327 10.0532 7.45895 10.0566 7.59662C10.0601 7.73407 10.0381 7.86707 9.99023 7.99567C9.94092 8.12857 9.86768 8.24704 9.77051 8.35117L8.9502 9.21646C8.80029 9.37366 8.68555 9.5545 8.60693 9.75897C8.52979 9.95822 8.49121 10.1662 8.49121 10.3828C8.49121 10.5992 8.52979 10.8065 8.60645 11.0047C8.68506 11.2077 8.79883 11.3863 8.94775 11.5406C9.08203 11.6819 9.24023 11.7899 9.42236 11.8649C9.60059 11.9381 9.78809 11.9749 9.98438 11.9753C10.1812 11.9757 10.3687 11.9394 10.5469 11.8666C10.73 11.7917 10.8887 11.6838 11.0229 11.5427L12.6655 9.81772C12.8149 9.66104 12.9292 9.4805 13.0083 9.27603C13.0854 9.07678 13.1235 8.86884 13.1235 8.65219C13.1235 8.43576 13.0854 8.22849 13.0083 8.03033C12.9297 7.82733 12.8159 7.64871 12.6675 7.49445C12.5454 7.36401 12.4062 7.2605 12.2505 7.18384C12.0962 7.10809 11.9336 7.06183 11.7637 7.0451C11.6201 7.03113 11.4858 6.98953 11.3594 6.92035C11.2388 6.8541 11.1348 6.76727 11.0474 6.65997C10.96 6.5531 10.896 6.43396 10.855 6.30255C10.8125 6.16605 10.7983 6.02652 10.8125 5.88394C10.8262 5.742 10.8667 5.60846 10.9336 5.48328C10.999 5.36093 11.085 5.25558 11.1914 5.16724C11.2993 5.07727 11.4204 5.0119 11.5547 4.97113C11.6943 4.92859 11.8374 4.91605 11.9839 4.9335C12.4038 4.97672 12.8042 5.09192 13.1865 5.27911C13.5728 5.46829 13.9131 5.71915 14.2085 6.03168C14.5464 6.38657 14.8042 6.7963 14.9824 7.26089C15.1538 7.70728 15.2388 8.17249 15.2383 8.65649C15.2378 9.14069 15.1514 9.60626 14.979 10.0533C14.7998 10.5186 14.54 10.93 14.1997 11.2873L12.5571 13.0123L12.5571 13.0121ZM11.833 12.3227L13.4756 10.5977C13.7241 10.3365 13.9146 10.0351 14.0459 9.69354C14.1738 9.36197 14.2378 9.0159 14.2383 8.65536C14.2388 8.29517 14.1758 7.94968 14.0488 7.6189C13.9185 7.27878 13.7295 6.97861 13.4814 6.71832C13.269 6.49356 13.0244 6.31317 12.7466 6.17712C12.4712 6.04224 12.1777 5.95868 11.8657 5.92648C11.8521 5.92484 11.8403 5.92819 11.8301 5.93652C11.8169 5.94742 11.8096 5.96225 11.8076 5.98105C11.8062 5.99841 11.811 6.01413 11.8223 6.02817C11.833 6.04114 11.8457 6.04837 11.8613 6.0499C12.1519 6.07846 12.4282 6.15723 12.6909 6.28616C12.957 6.41669 13.189 6.58817 13.3877 6.80057C13.6294 7.05136 13.8135 7.34079 13.9409 7.66882C14.063 7.98325 14.1235 8.31104 14.1235 8.65219C14.1235 8.99313 14.063 9.3212 13.9409 9.63641C13.814 9.96487 13.6304 10.2552 13.3896 10.5073L11.7471 12.2323C11.5142 12.4768 11.2402 12.6634 10.9253 12.7922C10.625 12.9149 10.311 12.9759 9.98242 12.9753C9.65479 12.9747 9.3418 12.9128 9.04199 12.7897C8.72852 12.6608 8.45703 12.4757 8.22754 12.2344C7.98584 11.9836 7.80127 11.6942 7.67432 11.3662C7.55225 11.0518 7.49121 10.724 7.49121 10.3828C7.49121 10.0419 7.55225 9.71381 7.67383 9.39859C7.80078 9.07013 7.98438 8.78009 8.22461 8.52853L9.03955 7.66885C9.05176 7.65579 9.05762 7.64044 9.05713 7.62274C9.05664 7.60434 9.05127 7.59024 9.0415 7.58054C9.02832 7.56836 9.0127 7.5625 8.99512 7.56296C8.97705 7.56345 8.96191 7.56961 8.9502 7.58145L8.13184 8.44482C7.8833 8.70621 7.69287 9.00726 7.56152 9.34802C7.43359 9.67892 7.37012 10.0242 7.37012 10.3838C7.37012 10.7433 7.43359 11.0886 7.56152 11.4195C7.69287 11.7602 7.88379 12.0621 8.13428 12.3251C8.37891 12.5852 8.66016 12.7842 8.979 12.922C9.2959 13.059 9.63037 13.1275 9.98242 13.1275C10.332 13.1275 10.6665 13.0582 10.9849 12.9196C11.3037 12.781 11.5859 12.5821 11.8325 12.3229L11.833 12.3227Z" fill="url(#paint_linear_10_6199_1)" fill-opacity="1.000000" fill-rule="evenodd"/>
</svg>
