<svg width="20" height="21" viewBox="0 0 20 21" fill="none" xmlns="http://www.w3.org/2000/svg">
    <path
        d="M6.81666 14.1304C6.18333 14.0721 5.55833 13.7804 5.075 13.2721C3.975 12.1138 3.975 10.2138 5.075 9.05543L6.9 7.13877C8 5.98044 9.80834 5.98044 10.9167 7.13877C12.0167 8.2971 12.0167 10.1971 10.9167 11.3554L10.0083 12.3138"
        stroke="#EDEDED" strokeWidth="1.5" strokeLinecap="round" strokeLinejoin="round" />
    <path
        d="M13.1838 7.43042C13.8171 7.48875 14.4421 7.78042 14.9255 8.28875C16.0255 9.44709 16.0255 11.3471 14.9255 12.5054L13.1005 14.4221C12.0005 15.5804 10.1921 15.5804 9.08379 14.4221C7.98379 13.2637 7.98379 11.3637 9.08379 10.2054L9.99213 9.24708"
        stroke="#EDEDED" strokeWidth="1.5" strokeLinecap="round" strokeLinejoin="round" />
    <path
        d="M7.50033 19.1139H12.5003C16.667 19.1139 18.3337 17.4473 18.3337 13.2806V8.2806C18.3337 4.11393 16.667 2.44727 12.5003 2.44727H7.50033C3.33366 2.44727 1.66699 4.11393 1.66699 8.2806V13.2806C1.66699 17.4473 3.33366 19.1139 7.50033 19.1139Z"
        stroke="#EDEDED" strokeWidth="1.5" strokeLinecap="round" strokeLinejoin="round" />
</svg>