<svg width="25" height="24" viewBox="0 0 25 24" fill="none" xmlns="http://www.w3.org/2000/svg">
<path d="M23.1409 8.27L22.8509 5.5C22.4309 2.48 21.0609 1.25 18.1309 1.25H15.7709H14.2909H11.2509H9.7709H7.3709C4.4309 1.25 3.0709 2.48 2.6409 5.53L2.3709 8.28C2.2709 9.35 2.5609 10.39 3.1909 11.2C3.9509 12.19 5.1209 12.75 6.4209 12.75C7.6809 12.75 8.8909 12.12 9.6509 11.11C10.3309 12.12 11.4909 12.75 12.7809 12.75C14.0709 12.75 15.2009 12.15 15.8909 11.15C16.6609 12.14 17.8509 12.75 19.0909 12.75C20.4209 12.75 21.6209 12.16 22.3709 11.12C22.9709 10.32 23.2409 9.31 23.1409 8.27Z" fill="white"/>
<path d="M12.1314 16.66C10.8614 16.79 9.90137 17.87 9.90137 19.15V21.89C9.90137 22.16 10.1214 22.38 10.3914 22.38H15.1614C15.4314 22.38 15.6514 22.16 15.6514 21.89V19.5C15.6614 17.41 14.4314 16.42 12.1314 16.66Z" fill="white"/>
<path d="M22.1511 14.4V17.38C22.1511 20.14 19.9111 22.38 17.1511 22.38C16.8811 22.38 16.6611 22.16 16.6611 21.89V19.5C16.6611 18.22 16.2711 17.22 15.5111 16.54C14.8411 15.93 13.9311 15.63 12.8011 15.63C12.5511 15.63 12.3011 15.64 12.0311 15.67C10.2511 15.85 8.90113 17.35 8.90113 19.15V21.89C8.90113 22.16 8.68113 22.38 8.41113 22.38C5.65113 22.38 3.41113 20.14 3.41113 17.38V14.42C3.41113 13.72 4.10113 13.25 4.75113 13.48C5.02113 13.57 5.29113 13.64 5.57113 13.68C5.69113 13.7 5.82113 13.72 5.94113 13.72C6.10113 13.74 6.26113 13.75 6.42113 13.75C7.58113 13.75 8.72113 13.32 9.62113 12.58C10.4811 13.32 11.6011 13.75 12.7811 13.75C13.9711 13.75 15.0711 13.34 15.9311 12.6C16.8311 13.33 17.9511 13.75 19.0911 13.75C19.2711 13.75 19.4511 13.74 19.6211 13.72C19.7411 13.71 19.8511 13.7 19.9611 13.68C20.2711 13.64 20.5511 13.55 20.8311 13.46C21.4811 13.24 22.1511 13.72 22.1511 14.4Z" fill="white"/>
</svg>
