<svg width="18.000000" height="18.000000" viewBox="0 0 18 18" fill="none" xmlns="http://www.w3.org/2000/svg" xmlns:xlink="http://www.w3.org/1999/xlink">
	<desc>
			Created with Pixso.
	</desc>
	<defs>
		<linearGradient id="paint_linear_8_6112_0" x1="1.178224" y1="0.937500" x2="16.785500" y2="9.562504" gradientUnits="userSpaceOnUse">
			<stop stop-color="#08C8F9"/>
			<stop offset="1.000000" stop-color="#1A3EDD"/>
		</linearGradient>
		<linearGradient id="paint_linear_8_6112_1" x1="1.178224" y1="0.937500" x2="16.785500" y2="9.562504" gradientUnits="userSpaceOnUse">
			<stop stop-color="#08C8F9"/>
			<stop offset="1.000000" stop-color="#1A3EDD"/>
		</linearGradient>
		<linearGradient id="paint_linear_8_6113_0" x1="6.839844" y1="12.468567" x2="11.152388" y2="16.785000" gradientUnits="userSpaceOnUse">
			<stop stop-color="#08C8F9"/>
			<stop offset="1.000000" stop-color="#1A3EDD"/>
		</linearGradient>
		<linearGradient id="paint_linear_8_6113_1" x1="6.839844" y1="12.468567" x2="11.152388" y2="16.785000" gradientUnits="userSpaceOnUse">
			<stop stop-color="#08C8F9"/>
			<stop offset="1.000000" stop-color="#1A3EDD"/>
		</linearGradient>
		<linearGradient id="paint_linear_8_6114_0" x1="1.972658" y1="9.434994" x2="16.027657" y2="16.784996" gradientUnits="userSpaceOnUse">
			<stop stop-color="#08C8F9"/>
			<stop offset="1.000000" stop-color="#1A3EDD"/>
		</linearGradient>
	</defs>
	<rect id="vuesax/bold/shop" width="18.000000" height="18.000000" fill="#FFFFFF" fill-opacity="0"/>
	<path id="Vector" d="M16.77 6.20251L16.5527 4.125C16.2378 1.85999 15.2104 0.9375 13.0127 0.9375L11.2427 0.9375L10.1328 0.9375L7.85254 0.9375L6.74268 0.9375L4.94287 0.9375C2.73779 0.9375 1.71777 1.85999 1.39502 4.14749L1.19287 6.20999C1.11768 7.01251 1.33545 7.79251 1.80762 8.39999C2.37793 9.14249 3.25537 9.5625 4.23047 9.5625C5.17529 9.5625 6.08252 9.09 6.65283 8.33249C7.1626 9.09 8.03271 9.5625 9 9.5625C9.96777 9.5625 10.8154 9.11249 11.3325 8.36249C11.9102 9.10501 12.8027 9.5625 13.7329 9.5625C14.7305 9.5625 15.6304 9.12 16.1929 8.34C16.6426 7.73999 16.8452 6.98251 16.77 6.20251Z" fill="url(#paint_linear_8_6112_0)" fill-opacity="1.000000" fill-rule="nonzero"/>
	<path id="Vector" d="M16.5527 4.125C16.2378 1.85999 15.2104 0.9375 13.0127 0.9375L11.2427 0.9375L10.1328 0.9375L7.85254 0.9375L6.74268 0.9375L4.94287 0.9375C2.73779 0.9375 1.71777 1.85999 1.39502 4.14749L1.19287 6.20999C1.11768 7.01251 1.33545 7.79251 1.80762 8.39999C2.37793 9.14249 3.25537 9.5625 4.23047 9.5625C5.17529 9.5625 6.08252 9.09 6.65283 8.33249C7.1626 9.09 8.03271 9.5625 9 9.5625C9.96777 9.5625 10.8154 9.11249 11.3325 8.36249C11.9102 9.10501 12.8027 9.5625 13.7329 9.5625C14.7305 9.5625 15.6304 9.12 16.1929 8.34C16.6426 7.73999 16.8452 6.98251 16.77 6.20251L16.5527 4.125Z" stroke="url(#paint_linear_8_6112_1)" stroke-opacity="1.000000" stroke-width="1.000000"/>
	<path id="Vector" d="M8.51221 12.495C7.56006 12.5925 6.83984 13.4025 6.83984 14.3625L6.83984 16.4175C6.83984 16.62 7.00488 16.785 7.20752 16.785L10.7847 16.785C10.9873 16.785 11.1523 16.62 11.1523 16.4175L11.1523 14.625C11.1597 13.0575 10.2373 12.315 8.51221 12.495Z" fill="url(#paint_linear_8_6113_0)" fill-opacity="1.000000" fill-rule="nonzero"/>
	<path id="Vector" d="M6.83984 14.3625L6.83984 16.4175C6.83984 16.62 7.00488 16.785 7.20752 16.785L10.7847 16.785C10.9873 16.785 11.1523 16.62 11.1523 16.4175L11.1523 14.625C11.1597 13.0575 10.2373 12.315 8.51221 12.495C7.56006 12.5925 6.83984 13.4025 6.83984 14.3625Z" stroke="url(#paint_linear_8_6113_1)" stroke-opacity="1.000000" stroke-width="1.000000"/>
	<path id="Vector" d="M16.0278 10.8L16.0278 13.035C16.0278 15.105 14.3477 16.785 12.2778 16.785C12.0752 16.785 11.9102 16.62 11.9102 16.4175L11.9102 14.625C11.9102 13.665 11.6177 12.915 11.0479 12.405C10.5449 11.9475 9.86279 11.7225 9.01514 11.7225C8.82764 11.7225 8.64014 11.73 8.4375 11.7525C7.10254 11.8875 6.09033 13.0125 6.09033 14.3625L6.09033 16.4175C6.09033 16.62 5.92529 16.785 5.72266 16.785C3.65283 16.785 1.97266 15.105 1.97266 13.035L1.97266 10.815C1.97266 10.29 2.49023 9.9375 2.97754 10.11C3.18018 10.1775 3.38281 10.23 3.59277 10.26C3.68262 10.275 3.78027 10.29 3.87012 10.29C3.99023 10.305 4.11035 10.3125 4.22998 10.3125C5.1001 10.3125 5.95508 9.98999 6.63037 9.435C7.27539 9.98999 8.11523 10.3125 9 10.3125C9.89258 10.3125 10.7178 10.005 11.3628 9.45001C12.0376 9.9975 12.8774 10.3125 13.7324 10.3125C13.8677 10.3125 14.0024 10.305 14.1304 10.29C14.2202 10.2825 14.3027 10.275 14.3853 10.26C14.6177 10.23 14.8276 10.1625 15.0376 10.095C15.5254 9.92999 16.0278 10.29 16.0278 10.8Z" fill="url(#paint_linear_8_6114_0)" fill-opacity="1.000000" fill-rule="nonzero"/>
	<g opacity="0.000000"/>
</svg>
