<svg width="18.000000" height="18.000000" viewBox="0 0 18 18" fill="none" xmlns="http://www.w3.org/2000/svg" xmlns:xlink="http://www.w3.org/1999/xlink">
	<desc>
			Created with Pixso.
	</desc>
	<defs>
		<linearGradient id="paint_linear_10_6226_0" x1="1.500001" y1="1.499996" x2="16.499996" y2="16.500000" gradientUnits="userSpaceOnUse">
			<stop stop-color="#08C8F9"/>
			<stop offset="1.000000" stop-color="#1A3EDD"/>
		</linearGradient>
		<linearGradient id="paint_linear_10_6226_1" x1="1.500001" y1="1.499996" x2="16.499996" y2="16.500000" gradientUnits="userSpaceOnUse">
			<stop stop-color="#08C8F9"/>
			<stop offset="1.000000" stop-color="#1A3EDD"/>
		</linearGradient>
		<linearGradient id="paint_linear_10_6227_0" x1="6.187500" y1="5.197508" x2="11.812500" y2="10.815010" gradientUnits="userSpaceOnUse">
			<stop stop-color="#08C8F9"/>
			<stop offset="1.000000" stop-color="#1A3EDD"/>
		</linearGradient>
		<linearGradient id="paint_linear_10_6227_1" x1="6.187500" y1="5.197508" x2="11.812500" y2="10.815010" gradientUnits="userSpaceOnUse">
			<stop stop-color="#08C8F9"/>
			<stop offset="1.000000" stop-color="#1A3EDD"/>
		</linearGradient>
		<linearGradient id="paint_linear_10_6228_0" x1="17.999994" y1="18.000006" x2="-0.000002" y2="0.000000" gradientUnits="userSpaceOnUse">
			<stop stop-color="#08C8F9"/>
			<stop offset="1.000000" stop-color="#1A3EDD"/>
		</linearGradient>
	</defs>
	<rect id="vuesax/bold/profile-circle" width="18.000000" height="18.000000" fill="#FFFFFF" fill-opacity="0"/>
	<path id="Vector" d="M16.5 9C16.5 4.86749 13.1323 1.5 9 1.5C4.86768 1.5 1.5 4.86749 1.5 9C1.5 11.175 2.4375 13.1325 3.92236 14.505C3.92236 14.5125 3.92236 14.5125 3.91504 14.52C3.99023 14.595 4.08008 14.655 4.15479 14.7225C4.2002 14.76 4.2373 14.7975 4.28271 14.8275C4.41748 14.94 4.56738 15.045 4.70996 15.15C4.7627 15.1875 4.80762 15.2175 4.85986 15.255C5.00244 15.3525 5.15234 15.4425 5.31006 15.525C5.3623 15.555 5.42236 15.5925 5.4751 15.6225C5.625 15.705 5.78271 15.78 5.94727 15.8475C6.00732 15.8775 6.06738 15.9075 6.12744 15.93C6.29248 15.9975 6.45752 16.0575 6.62256 16.11C6.68262 16.1325 6.74268 16.155 6.80273 16.17C6.98242 16.2225 7.1626 16.2675 7.34229 16.3125C7.39502 16.3275 7.44727 16.3425 7.50732 16.35C7.71729 16.395 7.92773 16.425 8.14502 16.4475C8.1748 16.4475 8.20508 16.455 8.23486 16.4625C8.49023 16.485 8.74512 16.5 9 16.5C9.25488 16.5 9.50977 16.485 9.75732 16.4625C9.7876 16.4625 9.81738 16.455 9.84766 16.4475C10.0649 16.425 10.2749 16.395 10.4849 16.35C10.5376 16.3425 10.5898 16.32 10.6499 16.3125C10.8301 16.2675 11.0176 16.23 11.1899 16.17C11.25 16.1475 11.3101 16.125 11.3701 16.11C11.5352 16.05 11.7075 15.9975 11.8652 15.93C11.9248 15.9075 11.9849 15.8775 12.0449 15.8475C12.2026 15.78 12.3599 15.705 12.5176 15.6225C12.5776 15.5925 12.6299 15.555 12.6826 15.525C12.8325 15.435 12.9824 15.3525 13.1323 15.255C13.1851 15.225 13.23 15.1875 13.2827 15.15C13.4326 15.045 13.5752 14.94 13.71 14.8275C13.7549 14.79 13.7925 14.7525 13.8374 14.7225C13.9199 14.655 14.0024 14.5875 14.0776 14.52C14.0776 14.5125 14.0776 14.5125 14.0698 14.505C15.5625 13.1325 16.5 11.175 16.5 9ZM12.7051 12.7275C10.6724 11.3625 7.34229 11.3625 5.29492 12.7275C4.96484 12.945 4.69482 13.2 4.47021 13.4775C3.33008 12.3225 2.625 10.74 2.625 9C2.625 5.4825 5.48242 2.625 9 2.625C12.5176 2.625 15.375 5.4825 15.375 9C15.375 10.74 14.6699 12.3225 13.5298 13.4775C13.3125 13.2 13.0352 12.945 12.7051 12.7275Z" fill="url(#paint_linear_10_6226_0)" fill-opacity="1.000000" fill-rule="nonzero"/>
	<path id="Vector" d="M9 1.5C4.86768 1.5 1.5 4.86749 1.5 9C1.5 11.175 2.4375 13.1325 3.92236 14.505C3.92236 14.5125 3.92236 14.5125 3.91504 14.52C3.99023 14.595 4.08008 14.655 4.15479 14.7225C4.2002 14.76 4.2373 14.7975 4.28271 14.8275C4.41748 14.94 4.56738 15.045 4.70996 15.15C4.7627 15.1875 4.80762 15.2175 4.85986 15.255C5.00244 15.3525 5.15234 15.4425 5.31006 15.525C5.3623 15.555 5.42236 15.5925 5.4751 15.6225C5.625 15.705 5.78271 15.78 5.94727 15.8475C6.00732 15.8775 6.06738 15.9075 6.12744 15.93C6.29248 15.9975 6.45752 16.0575 6.62256 16.11C6.68262 16.1325 6.74268 16.155 6.80273 16.17C6.98242 16.2225 7.1626 16.2675 7.34229 16.3125C7.39502 16.3275 7.44727 16.3425 7.50732 16.35C7.71729 16.395 7.92773 16.425 8.14502 16.4475C8.1748 16.4475 8.20508 16.455 8.23486 16.4625C8.49023 16.485 8.74512 16.5 9 16.5C9.25488 16.5 9.50977 16.485 9.75732 16.4625C9.7876 16.4625 9.81738 16.455 9.84766 16.4475C10.0649 16.425 10.2749 16.395 10.4849 16.35C10.5376 16.3425 10.5898 16.32 10.6499 16.3125C10.8301 16.2675 11.0176 16.23 11.1899 16.17C11.25 16.1475 11.3101 16.125 11.3701 16.11C11.5352 16.05 11.7075 15.9975 11.8652 15.93C11.9248 15.9075 11.9849 15.8775 12.0449 15.8475C12.2026 15.78 12.3599 15.705 12.5176 15.6225C12.5776 15.5925 12.6299 15.555 12.6826 15.525C12.8325 15.435 12.9824 15.3525 13.1323 15.255C13.1851 15.225 13.23 15.1875 13.2827 15.15C13.4326 15.045 13.5752 14.94 13.71 14.8275C13.7549 14.79 13.7925 14.7525 13.8374 14.7225C13.9199 14.655 14.0024 14.5875 14.0776 14.52C14.0776 14.5125 14.0776 14.5125 14.0698 14.505C15.5625 13.1325 16.5 11.175 16.5 9C16.5 4.86749 13.1323 1.5 9 1.5ZM5.29492 12.7275C4.96484 12.945 4.69482 13.2 4.47021 13.4775C3.33008 12.3225 2.625 10.74 2.625 9C2.625 5.4825 5.48242 2.625 9 2.625C12.5176 2.625 15.375 5.4825 15.375 9C15.375 10.74 14.6699 12.3225 13.5298 13.4775C13.3125 13.2 13.0352 12.945 12.7051 12.7275C10.6724 11.3625 7.34229 11.3625 5.29492 12.7275Z" stroke="url(#paint_linear_10_6226_1)" stroke-opacity="1.000000" stroke-width="1.000000"/>
	<path id="Vector" d="M9 5.19751C7.44727 5.19751 6.1875 6.4575 6.1875 8.01001C6.1875 9.53252 7.37988 10.77 8.9624 10.815C8.98486 10.815 9.01514 10.815 9.02979 10.815C9.04492 10.815 9.06738 10.815 9.08252 10.815C9.08984 10.815 9.09766 10.815 9.09766 10.815C10.6123 10.7625 11.8052 9.53252 11.8125 8.01001C11.8125 6.4575 10.5527 5.19751 9 5.19751Z" fill="url(#paint_linear_10_6227_0)" fill-opacity="1.000000" fill-rule="nonzero"/>
	<path id="Vector" d="M6.1875 8.01001C6.1875 9.53252 7.37988 10.77 8.9624 10.815C8.98486 10.815 9.01514 10.815 9.02979 10.815C9.04492 10.815 9.06738 10.815 9.08252 10.815C9.08984 10.815 9.09766 10.815 9.09766 10.815C10.6123 10.7625 11.8052 9.53252 11.8125 8.01001C11.8125 6.4575 10.5527 5.19751 9 5.19751C7.44727 5.19751 6.1875 6.4575 6.1875 8.01001Z" stroke="url(#paint_linear_10_6227_1)" stroke-opacity="1.000000" stroke-width="1.000000"/>
	<g opacity="0.000000">
		<path id="Vector" d="M18 18L0 18L0 0L18 0L18 18Z" fill="url(#paint_linear_10_6228_0)" fill-opacity="1.000000" fill-rule="evenodd"/>
	</g>
</svg>
