<svg width="40.000000" height="40.000000" viewBox="0 0 40 40" fill="none" xmlns="http://www.w3.org/2000/svg" xmlns:xlink="http://www.w3.org/1999/xlink">
	<desc>
			Created with Pixso.
	</desc>
	<defs>
		<linearGradient id="paint_linear_2_3176_0" x1="0.000004" y1="-0.000011" x2="39.999992" y2="39.999996" gradientUnits="userSpaceOnUse">
			<stop stop-color="#08C8F9"/>
			<stop offset="1.000000" stop-color="#1A3EDD"/>
		</linearGradient>
	</defs>
	<rect id="Icon" rx="12.000000" width="40.000000" height="40.000000" fill="url(#paint_linear_2_3176_0)" fill-opacity="1.000000"/>
	<rect id="vuesax/bold/message-question" width="24.000000" height="24.000000" transform="translate(8.000000 8.000000)" fill="#FFFFFF" fill-opacity="0"/>
	<g opacity="0.000000">
		<path id="Vector" d="M8 8L32 8L32 32L8 32L8 8Z" fill="#FFFFFF" fill-opacity="1.000000" fill-rule="evenodd"/>
	</g>
	<path id="Vector" d="M25 10.43L15 10.43C12 10.43 10 12.43 10 15.43L10 21.43C10 24.43 12 26.43 15 26.43L15 28.56C15 29.36 15.8896 29.84 16.5498 29.39L21 26.43L25 26.43C28 26.43 30 24.43 30 21.43L30 15.43C30 12.43 28 10.43 25 10.43ZM20 22.6C19.5801 22.6 19.25 22.26 19.25 21.85C19.25 21.44 19.5801 21.1 20 21.1C20.4199 21.1 20.75 21.44 20.75 21.85C20.75 22.26 20.4199 22.6 20 22.6ZM21.2598 18.45C20.8701 18.71 20.75 18.88 20.75 19.16L20.75 19.37C20.75 19.78 20.4102 20.12 20 20.12C19.5898 20.12 19.25 19.78 19.25 19.37L19.25 19.16C19.25 18 20.0996 17.43 20.4199 17.21C20.79 16.96 20.9102 16.79 20.9102 16.53C20.9102 16.03 20.5 15.62 20 15.62C19.5 15.62 19.0898 16.03 19.0898 16.53C19.0898 16.94 18.75 17.28 18.3398 17.28C17.9297 17.28 17.5898 16.94 17.5898 16.53C17.5898 15.2 18.6699 14.12 20 14.12C21.3301 14.12 22.4102 15.2 22.4102 16.53C22.4102 17.67 21.5703 18.24 21.2598 18.45Z" fill="#FFFFFF" fill-opacity="1.000000" fill-rule="nonzero"/>
</svg>
