<svg width="81" height="19" viewBox="0 0 81 19" fill="none" xmlns="http://www.w3.org/2000/svg">
<path d="M9.24494 0L11.962 5.50528L18.0374 6.38809L13.6412 10.6734L14.679 16.7243L9.24494 13.8674L3.8109 16.7243L4.84871 10.6734L0.452479 6.38809L6.52792 5.50528L9.24494 0Z" fill="#FFC436"/>
<path d="M33.0468 -6.10352e-05L35.7638 5.50522L41.8393 6.38803L37.443 10.6733L38.4809 16.7242L33.0468 13.8673L27.6128 16.7242L28.6506 10.6733L24.2544 6.38803L30.3298 5.50522L33.0468 -6.10352e-05Z" fill="#FFC436"/>
<path d="M56.8487 -6.10352e-05L59.5657 5.50522L65.6412 6.38803L61.2449 10.6733L62.2827 16.7242L56.8487 13.8673L51.4147 16.7242L52.4525 10.6733L48.0562 6.38803L54.1317 5.50522L56.8487 -6.10352e-05Z" fill="#FFC436"/>
<path d="M74.7641 16.7243L80.1981 13.701V0L77.5789 5.63991L71.4056 6.38809L75.9601 10.6219L74.7641 16.7243Z" fill="#FFC436"/>
</svg>
