<svg width="18.000000" height="18.000000" viewBox="0 0 18 18" fill="none" xmlns="http://www.w3.org/2000/svg" xmlns:xlink="http://www.w3.org/1999/xlink">
	<desc>
			Created with Pixso.
	</desc>
	<defs>
		<linearGradient id="paint_linear_10_6207_0" x1="1.500001" y1="1.499994" x2="16.492521" y2="16.499998" gradientUnits="userSpaceOnUse">
			<stop stop-color="#08C8F9"/>
			<stop offset="1.000000" stop-color="#1A3EDD"/>
		</linearGradient>
		<linearGradient id="paint_linear_10_6207_1" x1="1.500001" y1="1.499994" x2="16.492521" y2="16.499998" gradientUnits="userSpaceOnUse">
			<stop stop-color="#08C8F9"/>
			<stop offset="1.000000" stop-color="#1A3EDD"/>
		</linearGradient>
		<linearGradient id="paint_linear_10_6208_0" x1="17.999994" y1="18.000006" x2="-0.000002" y2="0.000000" gradientUnits="userSpaceOnUse">
			<stop stop-color="#08C8F9"/>
			<stop offset="1.000000" stop-color="#1A3EDD"/>
		</linearGradient>
		<linearGradient id="paint_linear_10_6208_1" x1="17.999994" y1="18.000006" x2="-0.000002" y2="0.000000" gradientUnits="userSpaceOnUse">
			<stop stop-color="#08C8F9"/>
			<stop offset="1.000000" stop-color="#1A3EDD"/>
		</linearGradient>
	</defs>
	<rect id="vuesax/bold/chart-2" width="18.000000" height="18.000000" fill="#FFFFFF" fill-opacity="0"/>
	<path id="Vector" d="M12.1426 1.5L5.85742 1.5C3.12744 1.5 1.5 3.1275 1.5 5.8575L1.5 12.135C1.5 14.8725 3.12744 16.5 5.85742 16.5L12.1348 16.5C14.8652 16.5 16.4927 14.8725 16.4927 12.1425L16.4927 5.8575C16.5 3.1275 14.8726 1.5 12.1426 1.5ZM7.43262 12.1425C7.43262 12.6225 7.04248 13.0125 6.55518 13.0125C6.0752 13.0125 5.68506 12.6225 5.68506 12.1425L5.68506 9.69749C5.68506 9.2175 6.0752 8.8275 6.55518 8.8275C7.04248 8.8275 7.43262 9.2175 7.43262 9.69749L7.43262 12.1425ZM12.3149 12.1425C12.3149 12.6225 11.9248 13.0125 11.4448 13.0125C10.9575 13.0125 10.5674 12.6225 10.5674 12.1425L10.5674 5.8575C10.5674 5.3775 10.9575 4.9875 11.4448 4.9875C11.9248 4.9875 12.3149 5.3775 12.3149 5.8575L12.3149 12.1425Z" fill="url(#paint_linear_10_6207_0)" fill-opacity="1.000000" fill-rule="nonzero"/>
	<path id="Vector" d="M5.85742 2C5.23877 2 4.68457 2.08894 4.1958 2.26682C3.729 2.43677 3.33301 2.68402 3.00879 3.00856C2.68408 3.33308 2.43701 3.72888 2.2666 4.19591C2.08887 4.68468 2 5.23854 2 5.8575L2 12.135C2 12.7559 2.08887 13.3113 2.26709 13.8012C2.43701 14.2692 2.68408 14.6657 3.00879 14.9907C3.33301 15.3156 3.729 15.563 4.1958 15.7331C4.68457 15.911 5.23828 16 5.85742 16L12.1348 16C12.7539 16 13.3076 15.9111 13.7964 15.7332C14.2637 15.5632 14.6592 15.316 14.9839 14.9914C15.3086 14.6669 15.5557 14.2711 15.7256 13.8041C15.9033 13.3153 15.9927 12.7615 15.9927 12.1425L15.9927 5.8575C15.9941 5.23792 15.9067 4.68378 15.7295 4.1951C15.561 3.72835 15.3145 3.33276 14.9902 3.00833C14.6665 2.68391 14.271 2.43674 13.8037 2.2668C13.3154 2.08893 12.7617 2 12.1426 2L5.85742 2ZM5.85742 1L12.1426 1C12.8789 1 13.5469 1.10904 14.146 1.32712C14.752 1.54768 15.269 1.87253 15.6978 2.30167C16.1265 2.73096 16.4507 3.24866 16.6699 3.85475C16.8872 4.45428 16.9946 5.12186 16.9927 5.8575L16.9927 12.1425C16.9927 12.879 16.8833 13.5468 16.6655 14.1461C16.4448 14.752 16.1201 15.2695 15.6909 15.6985C15.2622 16.1276 14.7446 16.4524 14.1387 16.6729C13.5396 16.891 12.8716 17 12.1348 17L5.85742 17C5.12109 17 4.45312 16.8909 3.854 16.6727C3.24756 16.4521 2.73047 16.1269 2.30127 15.6974C1.87207 15.2678 1.54736 14.7495 1.32715 14.1426C1.10889 13.5424 1 12.8732 1 12.135L1 5.8575C1 5.12102 1.10889 4.45316 1.32715 3.85393C1.54736 3.248 1.87256 2.7305 2.30127 2.30145C2.73047 1.87239 3.24805 1.54761 3.854 1.3271C4.45312 1.10904 5.12109 1 5.85742 1ZM6.55518 13.5125C6.36963 13.5125 6.19189 13.4765 6.02148 13.4045C5.85791 13.3351 5.71289 13.2373 5.58643 13.1111C5.46045 12.9848 5.3623 12.8398 5.29297 12.6759C5.22119 12.5058 5.18506 12.328 5.18506 12.1425L5.18506 9.69749C5.18506 9.51196 5.22119 9.33417 5.29297 9.16411C5.3623 9.00024 5.46045 8.85518 5.58643 8.72894C5.71289 8.60271 5.85791 8.5049 6.02148 8.43552C6.19189 8.36351 6.36963 8.3275 6.55518 8.3275C6.7417 8.3275 6.92041 8.36327 7.09131 8.43481C7.25586 8.50398 7.40234 8.60168 7.5293 8.72791C7.65625 8.85416 7.75439 8.99942 7.82422 9.16367C7.89648 9.33376 7.93262 9.5117 7.93262 9.69749L7.93262 12.1425C7.93262 12.3283 7.89648 12.5062 7.82422 12.6763C7.75439 12.8406 7.65625 12.9858 7.5293 13.1121C7.40234 13.2383 7.25586 13.336 7.09131 13.4052C6.92041 13.4767 6.7417 13.5125 6.55518 13.5125ZM6.55518 12.5125C6.66064 12.5125 6.75049 12.476 6.82422 12.4029C6.89648 12.331 6.93262 12.2442 6.93262 12.1425L6.93262 9.69749C6.93262 9.59576 6.89648 9.50897 6.82422 9.4371C6.75049 9.36403 6.66064 9.3275 6.55518 9.3275C6.45312 9.3275 6.36572 9.36368 6.29346 9.43605C6.22119 9.50842 6.18506 9.59557 6.18506 9.69749L6.18506 12.1425C6.18506 12.2444 6.22119 12.3316 6.29346 12.4039C6.36572 12.4763 6.45312 12.5125 6.55518 12.5125ZM11.4448 13.5125C11.2583 13.5125 11.0796 13.4767 10.9087 13.4052C10.7441 13.336 10.5977 13.2383 10.4707 13.1121C10.3438 12.9858 10.2456 12.8406 10.1758 12.6763C10.1035 12.5062 10.0674 12.3283 10.0674 12.1425L10.0674 5.8575C10.0674 5.67169 10.1035 5.49376 10.1758 5.32367C10.2456 5.15942 10.3438 5.01416 10.4707 4.88789C10.5977 4.76169 10.7441 4.66399 10.9087 4.59482C11.0796 4.52327 11.2583 4.4875 11.4448 4.4875C11.6304 4.4875 11.8081 4.5235 11.9785 4.5955C12.1421 4.6649 12.2871 4.76271 12.4136 4.88895C12.5396 5.01518 12.6377 5.16023 12.707 5.32411C12.7788 5.49417 12.8149 5.67197 12.8149 5.8575L12.8149 12.1425C12.8149 12.328 12.7788 12.5058 12.707 12.6759C12.6377 12.8398 12.5396 12.9848 12.4136 13.1111C12.2871 13.2373 12.1421 13.3351 11.9785 13.4045C11.8081 13.4765 11.6304 13.5125 11.4448 13.5125ZM11.4448 12.5125C11.5469 12.5125 11.6343 12.4763 11.7065 12.4039C11.7788 12.3316 11.8149 12.2444 11.8149 12.1425L11.8149 5.8575C11.8149 5.75557 11.7788 5.66843 11.7065 5.59605C11.6343 5.52368 11.5469 5.4875 11.4448 5.4875C11.3394 5.4875 11.2495 5.52403 11.1758 5.59711C11.1035 5.66896 11.0674 5.75577 11.0674 5.8575L11.0674 12.1425C11.0674 12.2442 11.1035 12.331 11.1758 12.4029C11.2495 12.476 11.3394 12.5125 11.4448 12.5125Z" fill="url(#paint_linear_10_6207_1)" fill-opacity="1.000000" fill-rule="evenodd"/>
	<g opacity="0.000000">
		<path id="Vector" d="M18 18L0 18L0 0L18 0L18 18Z" fill="url(#paint_linear_10_6208_0)" fill-opacity="1.000000" fill-rule="evenodd"/>
		<path id="Vector" d="M18.5 18.5L-0.5 18.5L-0.5 -0.5L18.5 -0.5L18.5 18.5ZM17.5 17.5L17.5 0.5L0.5 0.5L0.5 17.5L17.5 17.5Z" fill="url(#paint_linear_10_6208_1)" fill-opacity="1.000000" fill-rule="evenodd"/>
	</g>
</svg>
