<svg width="25" height="24" viewBox="0 0 25 24" fill="none" xmlns="http://www.w3.org/2000/svg">
<g id="support-icon 1">
<g id="Page-1">
<g id="support">
<path id="Vector" fill-rule="evenodd" clip-rule="evenodd" d="M20.1334 10.18C19.8234 7 17.9434 2 12.1334 2C6.32342 2 4.44342 7 4.13342 10.18C3.04593 10.5927 2.32861 11.6368 2.3334 12.8V14.2C2.3334 15.7464 3.58702 17 5.13342 17C6.67982 17 7.93342 15.7464 7.93342 14.2V12.8C7.92839 11.6619 7.23742 10.6393 6.18342 10.21C6.38342 8.37 7.36342 4 12.1334 4C16.9034 4 17.8734 8.37 18.0734 10.21C17.0216 10.6402 16.3341 11.6636 16.3334 12.8V14.2C16.3378 15.275 16.955 16.2533 17.9234 16.72C17.5034 17.51 16.4334 18.58 13.8034 18.9C13.2777 18.1017 12.2606 17.787 11.3759 18.1489C10.4912 18.5108 9.98621 19.4481 10.1707 20.386C10.3552 21.3239 11.1776 22 12.1334 22C12.8888 21.9958 13.5773 21.5664 13.9134 20.89C18.2034 20.4 19.5734 18.19 20.0034 16.89C21.1667 16.5132 21.9491 15.4227 21.9334 14.2V12.8C21.9382 11.6368 21.2209 10.5927 20.1334 10.18ZM5.93342 14.2C5.93342 14.6418 5.57525 15 5.13342 15C4.69159 15 4.33342 14.6418 4.33342 14.2V12.8C4.33342 12.5142 4.4859 12.2501 4.73342 12.1072C4.98094 11.9643 5.2859 11.9643 5.53342 12.1072C5.78094 12.2501 5.93342 12.5142 5.93342 12.8V14.2ZM18.3334 12.8C18.3334 12.3582 18.6916 12 19.1334 12C19.5753 12 19.9334 12.3582 19.9334 12.8V14.2C19.9334 14.6418 19.5753 15 19.1334 15C18.6916 15 18.3334 14.6418 18.3334 14.2V12.8Z" fill="#13181F"/>
</g>
</g>
</g>
</svg>
