<svg width="24" height="25" viewBox="0 0 24 25" fill="none" xmlns="http://www.w3.org/2000/svg">
<g id="vuesax/linear/xrp-(xrp)">
<g id="xrp-(xrp)">
<path id="Vector" d="M5.5 2.95947H4.1C3.1 2.95947 2.6 4.05947 3.3 4.75947L9 10.4595C10.6 12.0595 13.3 12.0595 14.9 10.4595L20.6 4.75947C21.4 4.05947 20.9 2.95947 19.9 2.95947H18.5C17.7 2.95947 16.9 3.25947 16.3 3.85947L12.7 7.45947C12.3 7.85947 11.6 7.85947 11.2 7.45947L7.7 3.85947C7.1 3.25947 6.3 2.95947 5.5 2.95947Z" stroke="#EDEDED" stroke-width="1.5" stroke-miterlimit="10" stroke-linecap="round" stroke-linejoin="round"/>
<path id="Vector_2" d="M5.49998 22.9595H4.09998C3.19998 22.9595 2.69998 21.8595 3.39998 21.1595L8.99998 15.4595C10.6 13.8595 13.3 13.8595 14.9 15.4595L20.6 21.1595C21.3 21.8595 20.8 22.9595 19.9 22.9595H18.5C17.7 22.9595 16.9 22.6595 16.3 22.0595L12.7 18.4595C12.3 18.0595 11.6 18.0595 11.2 18.4595L7.59998 22.0595C7.09998 22.5595 6.29998 22.9595 5.49998 22.9595Z" stroke="#EDEDED" stroke-width="1.5" stroke-miterlimit="10" stroke-linecap="round" stroke-linejoin="round"/>
</g>
</g>
</svg>
