<svg width="18.000000" height="18.000000" viewBox="0 0 18 18" fill="none" xmlns="http://www.w3.org/2000/svg" xmlns:xlink="http://www.w3.org/1999/xlink">
	<desc>
			Created with Pixso.
	</desc>
	<defs>
		<linearGradient id="paint_linear_10_6216_0" x1="1.500003" y1="2.624993" x2="15.729402" y2="15.374997" gradientUnits="userSpaceOnUse">
			<stop stop-color="#08C8F9"/>
			<stop offset="1.000000" stop-color="#1A3EDD"/>
		</linearGradient>
		<linearGradient id="paint_linear_10_6216_1" x1="1.500003" y1="2.624993" x2="15.729402" y2="15.374997" gradientUnits="userSpaceOnUse">
			<stop stop-color="#08C8F9"/>
			<stop offset="1.000000" stop-color="#1A3EDD"/>
		</linearGradient>
		<linearGradient id="paint_linear_10_6217_0" x1="17.999994" y1="18.000006" x2="-0.000002" y2="0.000000" gradientUnits="userSpaceOnUse">
			<stop stop-color="#08C8F9"/>
			<stop offset="1.000000" stop-color="#1A3EDD"/>
		</linearGradient>
		<linearGradient id="paint_linear_10_6218_0" x1="12.653320" y1="7.462492" x2="16.500162" y2="10.537495" gradientUnits="userSpaceOnUse">
			<stop stop-color="#08C8F9"/>
			<stop offset="1.000000" stop-color="#1A3EDD"/>
		</linearGradient>
	</defs>
	<rect id="vuesax/bold/wallet-money" width="18.000000" height="18.000000" fill="#FFFFFF" fill-opacity="0"/>
	<path id="Vector" d="M15.7275 12.06C15.5474 14.0625 14.1001 15.375 12 15.375L5.25 15.375C3.18018 15.375 1.5 13.695 1.5 11.625L1.5 6.375C1.5 4.33501 2.72998 2.91 4.64258 2.67C4.8374 2.64 5.04004 2.625 5.25 2.625L12 2.625C12.1948 2.625 12.3823 2.63251 12.5625 2.66251C14.355 2.8725 15.5698 4.125 15.7275 5.94C15.75 6.1575 15.5698 6.33749 15.3525 6.33749L14.1899 6.33749C13.4702 6.33749 12.8027 6.61501 12.3223 7.11C11.7524 7.66499 11.4673 8.44501 11.5352 9.22501C11.6548 10.59 12.855 11.6625 14.2798 11.6625L15.3525 11.6625C15.5698 11.6625 15.75 11.8425 15.7275 12.06Z" fill="url(#paint_linear_10_6216_0)" fill-opacity="1.000000" fill-rule="nonzero"/>
	<path id="Vector" d="M12 15.375L5.25 15.375C3.18018 15.375 1.5 13.695 1.5 11.625L1.5 6.375C1.5 4.33501 2.72998 2.91 4.64258 2.67C4.8374 2.64 5.04004 2.625 5.25 2.625L12 2.625C12.1948 2.625 12.3823 2.63251 12.5625 2.66251C14.355 2.8725 15.5698 4.125 15.7275 5.94C15.75 6.1575 15.5698 6.33749 15.3525 6.33749L14.1899 6.33749C13.4702 6.33749 12.8027 6.61501 12.3223 7.11C11.7524 7.66499 11.4673 8.44501 11.5352 9.22501C11.6548 10.59 12.855 11.6625 14.2798 11.6625L15.3525 11.6625C15.5698 11.6625 15.75 11.8425 15.7275 12.06C15.5474 14.0625 14.1001 15.375 12 15.375Z" stroke="url(#paint_linear_10_6216_1)" stroke-opacity="1.000000" stroke-width="1.000000"/>
	<g opacity="0.000000">
		<path id="Vector" d="M0 18L0 0L18 0L18 18L0 18Z" stroke="url(#paint_linear_10_6217_0)" stroke-opacity="1.000000" stroke-width="1.000000"/>
	</g>
	<path id="Vector" d="M16.5 8.22749L16.5 9.77249C16.5 10.185 16.1699 10.5225 15.75 10.5375L14.2803 10.5375C13.4702 10.5375 12.7275 9.94499 12.6602 9.13499C12.6152 8.66249 12.7949 8.22 13.1104 7.91249C13.3877 7.62749 13.77 7.46249 14.1899 7.46249L15.75 7.46249C16.1699 7.47749 16.5 7.81499 16.5 8.22749Z" fill="url(#paint_linear_10_6218_0)" fill-opacity="1.000000" fill-rule="nonzero"/>
</svg>
